<svg width="106" height="22" viewBox="0 0 106 22" fill="none" xmlns="http://www.w3.org/2000/svg" role="img" aria-labelledby="cresta-logo-title">
<title id="cresta-logo-title">Cresta</title>
<g clip-path="url(#clip0_7161_55779)">
<path d="M93.5851 6.37634V4.68555H82.3906V6.37634L87.0178 6.38004V17.2623L88.958 17.2586V6.37757H93.5851V6.37634Z" fill="#25252A"/>
<path d="M58.1016 17.2595H67.5722V15.5687H59.9842V11.5816H65.8779V9.96115H59.9842V6.37731H67.5722V6.37608V4.68652H58.1016V17.2595Z" fill="#25252A"/>
<path d="M35.6922 6.0296C37.5658 6.0296 39.0796 6.95701 39.9312 8.50721L39.9697 8.57134L40.0375 8.53927L41.5385 7.79809L41.6115 7.76109L41.5731 7.69449C40.4243 5.59426 38.242 4.32031 35.6922 4.32031C31.877 4.32031 28.8789 7.18886 28.8789 10.9712C28.8789 14.7536 31.877 17.6222 35.6922 17.6222C38.242 17.6222 40.4243 16.347 41.5731 14.248L41.6115 14.1802L41.5398 14.1444L40.0388 13.4032V13.4057L39.9684 13.3712L39.9312 13.4378C39.0783 14.988 37.5658 15.9154 35.6922 15.9154C32.8337 15.9154 30.7116 13.804 30.7116 10.9725C30.7116 8.14093 32.8337 6.0296 35.6922 6.0296Z" fill="#25252A"/>
<path d="M79.7061 11.4273H79.7086C79.0811 10.8625 78.2102 10.4752 77.1998 10.2483L74.6589 9.69087L74.5103 9.65757C73.7867 9.48492 73.286 9.25923 72.9658 8.98298C72.6405 8.7018 72.4779 8.35033 72.4779 7.87059C72.4779 7.39086 72.7353 6.91482 73.2284 6.57444C73.7278 6.23036 74.4693 6.00961 75.3978 6.00591C77.3125 5.99851 78.3434 6.94318 78.9389 8.28373L80.5283 7.50062C79.8508 5.57674 78.1296 4.32129 75.4158 4.32129C72.702 4.32129 70.5107 5.81229 70.5107 7.93842C70.5107 8.89789 70.909 9.67731 71.5763 10.2668C72.2345 10.8477 73.1438 11.2361 74.1671 11.4606L76.3929 11.9453C77.2382 12.1315 77.835 12.3707 78.2141 12.6716C78.5752 12.9578 78.7545 13.3092 78.7545 13.7828C78.7545 14.4525 78.4536 14.9803 77.9182 15.3515C77.3714 15.7301 76.5594 15.9583 75.5426 15.9583C74.4489 15.9583 73.6074 15.6684 72.9799 15.2072C72.3767 14.7645 72.0309 14.2847 71.6032 13.4387L70.0625 14.1984C70.7041 16.0483 72.6098 17.6244 75.5438 17.6244C78.4779 17.6244 80.7396 16.0804 80.7396 13.731C80.7396 12.7925 80.3631 12.018 79.7061 11.4273Z" fill="#25252A"/>
<path d="M101.564 5.86947C101.254 5.03333 100.461 4.49316 99.538 4.49316H99.5342C98.6095 4.4944 97.8168 5.0358 97.5094 5.87441L93.0859 17.261H95.1389L96.2736 14.3629H102.808L103.946 17.261H103.947L106.002 17.2623L101.564 5.86947ZM96.9254 12.7054L99.3703 6.19259C99.4317 6.0298 99.6712 6.0298 99.7314 6.19259L102.16 12.7054H96.9254Z" fill="#25252A"/>
<path d="M51.4427 12.2288C53.0013 12.0056 54.9032 10.6034 54.9032 8.44892C54.9032 6.29443 53.2997 4.6875 50.5757 4.6875H44.6641V17.2593H46.5287V12.0229C46.5287 11.8564 46.7375 11.775 46.8579 11.8934L52.2957 17.258H54.6983L49.596 12.2954C50.5194 12.2954 51.0611 12.2769 51.4402 12.2288H51.4427ZM46.5313 10.7292V6.37582L50.577 6.37459C52.1254 6.37459 53.0013 7.22677 53.0013 8.44892C53.0013 9.67108 52.1254 10.7292 50.577 10.7292H46.5313Z" fill="#25252A"/>
<path d="M20.846 8.50848C20.7884 8.64537 20.5963 8.66757 20.5054 8.54917C20.4234 8.44188 20.3735 8.36912 20.3735 8.36912C19.5922 7.19876 18.6561 6.0839 17.5905 5.05783C16.7734 4.27102 15.9 3.55697 14.992 2.92801L14.8908 2.86141L14.7794 2.87868C14.1416 2.97487 13.5256 3.14999 12.9749 3.34855L12.7047 3.44721L12.9506 3.5952C14.1583 4.31172 15.3211 5.19966 16.3828 6.22326C17.3626 7.1667 18.2219 8.18906 18.9353 9.26076C19.3118 9.82559 19.9496 10.1536 20.627 10.1536C20.7474 10.1536 20.8691 10.1425 20.9908 10.1216C21.3711 10.055 21.7207 9.88725 22.0012 9.63814C22.3035 9.36929 22.5109 9.01658 22.5993 8.61947C22.9015 7.26536 22.9297 5.99881 22.6877 4.85311C22.4277 3.62233 21.8642 2.58146 21.0138 1.76382C19.8932 0.689653 18.3423 0.0828924 16.5276 0.007664C14.9497 -0.0564651 13.1926 0.282679 11.4227 0.994266C9.6541 0.283913 7.89572 -0.0564651 6.31919 0.007664C4.50446 0.0816592 2.95354 0.689653 1.8355 1.76628C0.716179 2.84415 0.0860808 4.33638 0.00795878 6.08513C-0.058637 7.6045 0.293552 9.29652 1.03251 11.0009V11.0033C1.33475 11.6397 1.70487 12.3735 2.09804 13.0456V13.0419C2.94202 14.4182 4.01267 15.7427 5.25622 16.9402C6.41524 18.0563 7.68825 19.0269 9.01376 19.8125C9.12262 19.8766 9.09828 20.0357 8.97406 20.0653C8.06989 20.2836 7.19774 20.381 6.39219 20.3477C5.7019 20.3206 5.06668 20.196 4.50445 19.9827C3.94223 19.7693 3.45173 19.4622 3.04575 19.0701C2.63977 18.6791 2.32088 18.2068 2.09804 17.6654C1.87648 17.124 1.74713 16.5123 1.71896 15.8476C1.70359 15.485 1.7164 15.1088 1.75866 14.7228V14.7019L1.76506 14.6242L1.71384 14.5465C1.34756 14.0186 0.987685 13.4008 0.659829 12.7866L0.492059 12.4685L0.393446 12.815C0.0988876 13.8904 -0.0330232 14.9399 0.00923947 15.9154C0.0860808 17.6629 0.71746 19.1564 1.8355 20.233C2.95354 21.3096 4.50446 21.9176 6.31919 21.9916C6.4447 21.9966 6.57277 22.0003 6.69955 22.0003C8.17747 22.0003 9.79498 21.6599 11.4227 21.0063C13.0505 21.6587 14.6693 22.0003 16.1459 22.0003C16.2727 22.0003 16.4008 21.9978 16.5263 21.9916C18.341 21.9176 19.8919 21.3096 21.01 20.233C21.8591 19.4154 22.4226 18.3757 22.6838 17.1437C22.9259 15.998 22.8964 14.7302 22.5955 13.3774C22.5071 12.979 22.3009 12.6275 21.9974 12.3587V12.355C21.681 12.075 21.2789 11.8987 20.8448 11.8518C20.0712 11.7692 19.3246 12.1478 18.902 12.7768C18.1925 13.8312 17.3446 14.8388 16.379 15.7699C15.3173 16.7922 14.1532 17.6814 12.9468 18.3979L12.7021 18.541L12.9711 18.6446C13.5218 18.8431 14.1378 19.017 14.7769 19.1145L14.8947 19.1342L14.9894 19.0651C15.8975 18.4374 16.7722 17.7221 17.588 16.9353C18.6535 15.9092 19.591 14.7956 20.3709 13.624C20.3709 13.624 20.4221 13.55 20.5041 13.444C20.595 13.3256 20.7858 13.349 20.8448 13.4847C20.8755 13.5562 20.8985 13.6326 20.9216 13.7202C21.4249 15.9857 21.0279 17.8849 19.7997 19.0664C19.3937 19.4573 18.9032 19.7644 18.341 19.979C17.7788 20.1923 17.1436 20.3169 16.4533 20.344C15.5952 20.3798 14.6616 20.2663 13.6947 20.0172C12.6253 19.752 11.6827 19.3414 11.0334 19.0146C9.42358 18.2216 7.8573 17.1116 6.46519 15.7711C4.96166 14.3233 3.73604 12.6793 2.90488 10.9972C3.73732 9.31502 4.96166 7.6711 6.46519 6.22326C7.84193 4.89751 9.39028 3.79622 10.9835 3.00447C11.6404 2.67149 12.6138 2.24232 13.7241 1.96977C14.6808 1.72435 15.6055 1.61583 16.4546 1.65036C17.1448 1.67749 17.7801 1.80205 18.3423 2.0154C18.9045 2.22875 19.395 2.53583 19.801 2.92801C21.0279 4.10946 21.4275 6.00867 20.9229 8.27416C20.9011 8.36172 20.8768 8.43695 20.846 8.50848ZM9.01376 2.18312C7.68825 2.9687 6.41396 3.94051 5.25366 5.0566C4.09463 6.1727 3.08545 7.39978 2.26965 8.67743C2.20306 8.78226 2.03913 8.75759 2.00839 8.6392H2.00967C1.78171 7.76606 1.68182 6.92621 1.7164 6.14926C1.74457 5.48454 1.87392 4.87285 2.09548 4.33145C2.31704 3.79005 2.63593 3.31771 3.04319 2.92677C3.44917 2.53583 3.93967 2.22875 4.50189 2.01417C5.06412 1.80081 5.69934 1.67626 6.38963 1.64912C6.49208 1.64542 6.5971 1.64172 6.70084 1.64172C7.4193 1.64172 8.18387 1.73915 8.97406 1.93154C9.09828 1.96237 9.1239 2.11899 9.01376 2.18312Z" fill="#25252A"/>
</g>
<defs><clipPath id="clip0_7161_55779"><rect width="106" height="22" fill="white"/></clipPath></defs>
</svg>
